<svg xmlns="http://www.w3.org/2000/svg" viewBox="0 0 333.842 333.842" width="512" height="512"><path d="M166.911 333.832C74.879 333.832 0 258.96 0 166.921S74.873.01 166.911.01c92.045 0 166.931 74.879 166.931 166.918s-74.886 166.904-166.931 166.904zm0-320.969c-84.95 0-154.058 69.108-154.058 154.064 0 84.943 69.108 154.058 154.058 154.058 84.956 0 154.077-69.114 154.077-154.058-.006-84.956-69.12-154.064-154.077-154.064zm-12.885 93.318c0-15.971-12.989-28.966-28.966-28.966S96.094 90.21 96.094 106.181c0 5.328 4.319 9.64 9.64 9.64 5.321 0 9.64-4.312 9.64-9.64 0-5.341 4.345-9.685 9.685-9.685 5.341 0 9.685 4.345 9.685 9.685 0 5.328 4.319 9.64 9.64 9.64s9.642-4.312 9.642-9.64zm83.715 0c0-15.971-12.989-28.966-28.966-28.966S179.81 90.21 179.81 106.181c0 5.328 4.319 9.64 9.64 9.64 5.321 0 9.64-4.312 9.64-9.64 0-5.341 4.345-9.685 9.685-9.685s9.685 4.345 9.685 9.685c0 5.328 4.319 9.64 9.64 9.64s9.641-4.312 9.641-9.64zm-70.823 157.727c56.563 0 102.431-45.855 102.431-102.424H64.487c0 56.569 45.855 102.424 102.431 102.424z" fill="#333"/></svg>