<svg xmlns="http://www.w3.org/2000/svg" viewBox="0 0 25.813 25.813" width="512" height="512"><path d="M13.953 14a2 2 0 1 1 3.999-.001 2 2 0 0 1-3.999.001zm-6-2a2 2 0 1 0-.001 3.999A2 2 0 0 0 7.953 12zm14-2h-.161c.004-6.996-4.665-10-9.839-10C6.372 0 1.212 3.464 2.167 11.715 1.422 12.4.953 13.522.953 14.84c0 1.872 1.793 3.478 3.182 3.987.45 1.485 1.357 2.829 2.65 3.916a1 1 0 0 0 1.287-1.531c-1.144-.961-1.864-2.112-2.141-3.423-.091-.431-.53-.755-.969-.793-.449-.039-2.009-1.134-2.009-2.156 0-.479.101-.883.251-1.194a.989.989 0 0 0 .749.354 1 1 0 0 0 1-1v-.961c.037-.634.127-1.291.286-1.937 1.372-.465 2.525.29 3.714-3.212 1.743 5.181 6.253 2.194 9.351 2.052.358.88.581 1.907.649 3.098V13a1 1 0 0 0 1 1v2.485c-.371.308-.758.515-1 .515a1 1 0 0 0-.979.793 5.776 5.776 0 0 1-1.193 2.463.998.998 0 0 0 .145 1.406.996.996 0 0 0 1.406-.145 7.828 7.828 0 0 0 1.43-2.652c.51-.162 1.027-.472 1.497-.865h.687c-.548 2.776-2.095 4.081-2.394 4.304-.265.113-1.758.677-4.829.845-.207-1.11-1.363-1.962-2.77-1.962-1.554 0-2.813 1.036-2.813 2.313s1.259 2.313 2.813 2.313c.982 0 1.843-.415 2.347-1.041 4.156-.16 5.939-1.021 6.097-1.106.125-.083 2.766-1.909 3.267-6.233A3.012 3.012 0 0 0 24.859 15v-2c0-1.657-1.25-3-2.906-3z" fill="#333"/></svg>