<svg xmlns="http://www.w3.org/2000/svg" viewBox="0 0 487.048 487.048" width="512" height="512"><g fill="#FFF"><path d="M153.723 293.718H16.733c-9.252 0-16.733 7.49-16.733 16.73 0 9.239 7.481 16.731 16.733 16.731h136.99c9.245 0 16.729-7.492 16.729-16.731 0-9.24-7.484-16.73-16.729-16.73zM170.452 226.79H66.926c-9.248 0-16.732 7.492-16.732 16.733 0 9.239 7.484 16.731 16.732 16.731h103.525c9.25 0 16.734-7.492 16.734-16.731.001-9.242-7.483-16.733-16.733-16.733zM203.919 176.594c0-9.238-7.483-16.731-16.732-16.731h-70.063c-9.252 0-16.734 7.493-16.734 16.731 0 9.241 7.482 16.733 16.734 16.733h70.063c9.248.001 16.732-7.491 16.732-16.733zM478.458 132.281a35.69 35.69 0 0 0-27.178-12.514H259.455c-17.729 0-32.582 12.711-35.345 30.244l-27.513 176.011a35.746 35.746 0 0 0 8.167 28.741 35.692 35.692 0 0 0 27.178 12.517h191.826c17.73 0 32.58-12.714 35.344-30.247l27.512-176.008a35.742 35.742 0 0 0-8.166-28.744zm-52.42 199.573a2.295 2.295 0 0 1-2.27 1.961H231.942a2.34 2.34 0 0 1-1.75-.803 2.323 2.323 0 0 1-.521-1.853l27.514-175.97c.18-1.136 1.129-1.961 2.271-1.961h61.831l-8.04 43.295c-.608 3.267.26 6.64 2.396 9.198a11.18 11.18 0 0 0 8.613 4.043h38.908c5.393 0 10.03-3.846 11.01-9.148l8.811-47.386h68.295a2.35 2.35 0 0 1 1.75.802c.439.516.619 1.202.521 1.854l-27.513 175.968z"/></g></svg>