<svg xmlns="http://www.w3.org/2000/svg" viewBox="0 0 512 512" width="512" height="512"><path d="M459.077 486.155l-30.008-330.121c-1.057-11.634-10.814-20.543-22.496-20.543h-67.765V82.824C338.808 37.155 301.654 0 255.985 0s-82.824 37.155-82.824 82.824v52.668h-67.765c-11.683 0-21.438 8.909-22.495 20.543L52.784 487.367A22.586 22.586 0 0 0 75.279 512H436.721c12.476 0 22.588-10.114 22.588-22.588 0-1.106-.08-2.194-.232-3.257zM211.722 249.339c-4.203 4.216-10.029 6.626-15.977 6.626s-11.761-2.409-15.964-6.626c-4.215-4.201-6.624-10.014-6.624-15.962s2.411-11.776 6.624-15.977a22.726 22.726 0 0 1 15.964-6.611c5.95 0 11.775 2.409 15.977 6.611 4.201 4.201 6.611 10.029 6.611 15.977s-2.411 11.761-6.611 15.962zm6.616-166.515c0-20.759 16.888-37.647 37.647-37.647 20.759 0 37.647 16.888 37.647 37.647v52.668h-75.294V82.824zm113.855 166.515c-4.203 4.216-10.029 6.626-15.977 6.626a22.676 22.676 0 0 1-15.964-6.626c-4.215-4.201-6.624-10.014-6.624-15.962s2.411-11.776 6.624-15.977c4.204-4.201 10.016-6.611 15.964-6.611s11.775 2.409 15.977 6.611c4.2 4.201 6.611 10.029 6.611 15.977s-2.411 11.761-6.611 15.962z" fill="#ccbbb4"/></svg>