<svg xmlns="http://www.w3.org/2000/svg" viewBox="0 0 45.133 45.133" width="512" height="512"><path d="M43.833 12.015s.6-1 .7-1.6.1-1.3-.2-1.6c-.3-.3-1.5.2-2.5.5s-2.9.6-2.9.6-1.2-3.6-3.2-5-4.5-1.4-6.7-.9-4.9 1.9-6.1 3.4-2.3 4.4-2.7 5.6c-.4 1.2-1.1 3.2-2 3.4-.8.2-2.4-.4-3.8-1.3-1.3-.8-4.8-3.7-6.6-5.3-1.7-1.6-4.2-4.4-5-4.2s-1.7 3.1-1.7 5.2 1.8 4.1 1.8 4.1c-.7 2.7-.3 4.6.4 6.1.7 1.4 2.3 2.4 2.3 2.4-.2.9-.1 2.1.2 3.1.3 1 2.1 2.3 2.1 2.3s-1 .8-2.7 1.3c-1.6.5-4.8 0-5.1 0-.3.1 0 4.3 0 4.9 0 .6.4 1.1 1 1.5.5.4 4.9 2.6 11 4.2s10.9.2 14.5-1.4c3.6-1.6 7.5-6.4 10.1-10.3 2.5-3.9 4.2-9.5 4.2-9.5s.9-.5 2.3-1.5c1.3-1 1.8-2.7 1.9-3.8-.2-1.3-1.3-2.2-1.3-2.2zm-3 2.3c.4 0 2.1-1 2.3-.8.2.2-.5 1.5-1.7 2.2-1.2.7-2.2 1.1-2.4 1-.2-.1-1.1-1.7-1.2-1.7-.2 0-.6.4-.5.6s1.1 1.5 1 1.7-.2.3-.3.2-1.1-2.1-1.3-2.2c-.3-.1-.6.5-.5.8.2.3 1.4 1.9 1.4 2.1 0 .3-.3 1.4-.4 1.2-.1-.2-1.6-3-1.8-3s-.5.7-.4.9c.1.2 1.9 2.8 1.9 3.1s-.5 1.4-.7 1.2c-.2-.2-1.7-3.6-1.9-3.6-.2 0-.6.6-.6.7 0 .2 2 3.5 2.1 3.8s-.4 1.7-.6 1.6c-.2-.1-1.8-4.2-2-4.2s-.5.6-.4.8c.1.3 2 3.9 2 4.2s-.3.8-.4.8-2.1-5.1-2.3-5.1c-.2 0-.5.5-.3 1.1s2.2 4.4 2.3 4.7c0 .3-.5 1-.6.9s-2.2-4.9-2.4-4.9-.5.8-.3 1.1 2.4 4.2 2.4 4.3-.6 1-.7 1c-.2-.1-2-4.5-2.2-4.5s-.6.5-.4 1 2.2 3.9 2.1 4.1c-.1.2-.6 1-.7.8s-2.1-4.7-2.3-4.7-.8.5-.6.9c.2.4 2.4 4.4 2.3 4.5s-.9 1.1-1 1.1c-.1-.1-2.3-4.7-2.5-4.6-.2.1-.6.4-.4.8s2.4 4.2 2.3 4.4-.6.6-.8.5-2.4-4.7-2.6-4.7-.7.7-.6.9c.2.3 2.6 4 2.5 4.2s-.9.8-1 .7-2-3.9-2.3-3.9c-.4 0-.7.6-.5.8s2.1 3.4 2.1 3.4-.9.6-1.1.4c-.2-.2-1.7-3.7-1.8-3.7s-.8.4-.5.8c.3.4 1.8 3.1 1.7 3.2-.2.1-.6.4-.8.2-.2-.2-1.7-3.7-1.9-3.7s-.8.3-.6.5 1.8 3.5 1.7 3.6c-.1.1-1.1.4-1.2.2-.1-.1-1.5-3.1-1.7-3.1s-.5.4-.4.5c.1.2 1.5 2.7 1.4 2.7-.1.1-1.1.2-1.2.1s-1.4-3.1-1.6-3.2c-.2-.1-.7.4-.6.6s1.3 2.5 1.1 2.6-1 .1-1.1-.1c-.1-.2-1.2-2.6-1.4-2.7-.2-.1-.6.1-.5.5.2.4 1.3 2.5 1.2 2.5s-1.1 0-1.2-.1-1.1-2.6-1.3-2.6c-.2-.1-.8-.1-.7.2.1.3 1.2 2.2 1 2.2s-1.2-.2-1.4-.4c-.2-.2-1.1-2.5-1.3-2.5s-.6.2-.6.5c.1.3 1 1.9.7 1.9-.2-.1-1.3-.2-1.3-.4s-1-2.2-1.2-2.3-.8 0-.6.3c.2.3.8 1.7.7 1.7s-2.5-.7-4.4-1.7-3.7-2.6-3.5-2.6 2.8.2 4.5-.5 3.5-1.3 3.6-1.5-.2-.7-.3-.7c-.1 0-2.2-.7-2.6-2.2-.5-1.5-.1-3.2-.4-3.4-.3-.2-1.7-.8-2.4-3s.1-5.2-.1-5.4-.4-.6-.6-.5c-.3.1-1.1-1.6-1.1-3.3 0-1.6.7-3.8.8-3.8s4.7 4.4 7.1 6.4 5.2 4.1 6.8 4.4c1.6.3 2.3.3 3.1-1.2.8-1.6 1.6-5.4 2.8-7.2 1.2-1.8 3.6-3.8 6.7-4.3s5.5.4 6.7 2.1 1.3 4 1.6 4.2 1.6.1 3.3-.4c1.6-.6 2.2-.7 2.3-.7s-.4 1-1.4 1.9-1.8 1.5-1.8 1.9.3.9.7.9zm-36.6-3c-.5-.4-.3-1.3-.2-1.9.1-.7-.9-.5-1.1.2s0 1.7.6 2.2 1.1.5 1.3.4c.2-.1-.2-.5-.6-.9zm14.1 7.2c-.4-.1-1.3.5-2.3-.1-1-.5-1.9-1.7-2.4-1.5-.3.1-.6.5.1 1.2s2.1 1.3 3.2 1.3c1.2 0 1.8-.8 1.4-.9zm6.9-8.9c-.3-.1-1.3.6-1.8 1.5s-1.3 2.6-.7 2.9c.4.2.6-.1.9-1 .3-1 .9-2.1 1.2-2.5.4-.3.7-.8.4-.9z" fill="#ca0b3f"/></svg>